<?xml version="1.0" encoding="UTF-8" standalone="no"?>
<svg width="81px" height="82px" viewBox="0 0 81 82" version="1.1" xmlns="http://www.w3.org/2000/svg" xmlns:xlink="http://www.w3.org/1999/xlink" xmlns:sketch="http://www.bohemiancoding.com/sketch/ns">
    <!-- Generator: Sketch 3.3.3 (12081) - http://www.bohemiancoding.com/sketch -->
    <title>design</title>
    <desc>Created with Sketch.</desc>
    <defs></defs>
    <g id="Page-1" stroke="none" stroke-width="1" fill="none" fill-rule="evenodd" sketch:type="MSPage">
        <g id="design" sketch:type="MSLayerGroup" fill="#3FAB6D">
            <g id="Page-1" sketch:type="MSShapeGroup">
                <g id="design">
                    <g id="Group">
                        <path d="M80.76,17.92 L64.08,1.23 C63.71,0.86 63.11,0.86 62.74,1.23 L41.22,22.75 L37.42,18.96 C37.34,18.87 37.24,18.79 37.12,18.73 L34.87,17.62 L33.73,17.06 L4.25,2.54 C3.89,2.37 3.45,2.44 3.16,2.73 C2.87,3.01 2.8,3.45 2.98,3.82 L19.16,36.69 C19.22,36.81 19.31,36.9 19.4,36.98 L19.39,36.99 L23.19,40.78 L0.73,63.24 C0.36,63.61 0.36,64.21 0.73,64.58 L17.42,81.26 C17.79,81.63 18.39,81.63 18.76,81.26 L41.21,58.81 L50.77,68.361 C51.14,68.741 51.741,68.731 52.111,68.361 L68.8,51.68 C69.17,51.31 69.17,50.71 68.8,50.33 L59.24,40.78 L80.76,19.26 C81.13,18.89 81.13,18.29 80.76,17.92 L80.76,17.92 L80.76,17.92 Z M19.33,32.73 L18.91,31.88 L10.09,13.95 L14.39,9.65 L32.32,18.47 L33.54,19.08 C32.64,19.38 31.89,19.83 31.29,20.43 C29.97,21.75 29.77,23.43 29.8,24.53 C28.82,24.69 27.92,25.14 27.19,25.87 C26.13,26.93 25.61,28.35 25.36,29.23 C23.2,29.33 21.54,29.94 20.43,31.05 C19.91,31.57 19.56,32.15 19.33,32.73 L19.33,32.73 L19.33,32.73 Z M18.08,79.25 L2.74,63.91 L13.2,53.44 L18.18,58.419 C18.55,58.789 19.15,58.789 19.52,58.419 C19.89,58.049 19.89,57.449 19.52,57.079 L14.54,52.099 L16.74,49.91 L21.72,54.88 C22.09,55.25 22.69,55.25 23.06,54.88 C23.43,54.51 23.43,53.91 23.06,53.54 L18.08,48.57 L20.28,46.37 L25.26,51.34 C25.62,51.71 26.23,51.71 26.6,51.34 C26.97,50.97 26.97,50.38 26.6,50 L21.62,45.03 L23.82,42.83 L33.22,52.23 C33.59,52.599 34.19,52.599 34.56,52.23 C34.57,52.219 34.58,52.2 34.59,52.19 L39.87,57.46 L18.08,79.25 L18.08,79.25 Z M66.79,51.01 L51.44,66.35 L42.549,57.47 L41.209,56.12 L25.86,40.78 L24.53,39.44 L20.88,35.8 C20.78,35.2 20.63,33.53 21.77,32.39 C22.64,31.52 24.1,31.09 26.12,31.11 C26.59,31.11 26.99,30.77 27.06,30.3 C27.06,30.28 27.37,28.38 28.53,27.22 C29.16,26.59 29.9,26.31 30.81,26.37 C31.11,26.39 31.4,26.26 31.59,26.03 C31.78,25.8 31.85,25.49 31.79,25.2 C31.78,25.18 31.31,23.09 32.63,21.77 C33.39,21 34.64,20.6 36.32,20.54 L39.88,24.1 L41.22,25.44 L56.56,40.78 L57.901,42.12 L66.79,51.01 L66.79,51.01 Z M57.9,39.44 L48.089,29.63 C48.15,29.33 48.059,29.01 47.829,28.78 L42.849,23.8 L45.039,21.6 L50.018,26.58 C50.388,26.95 50.989,26.95 51.359,26.58 C51.729,26.21 51.729,25.61 51.359,25.24 L46.388,20.26 L48.578,18.06 L53.557,23.04 C53.927,23.41 54.528,23.41 54.898,23.04 C55.267,22.67 55.267,22.07 54.898,21.7 L49.918,16.72 L52.118,14.52 L61.517,23.93 C61.887,24.3 62.488,24.3 62.858,23.93 C63.228,23.56 63.228,22.96 62.858,22.58 L53.458,13.18 L55.538,11.11 L55.658,10.99 L60.637,15.96 C61.007,16.33 61.608,16.33 61.978,15.96 C62.347,15.59 62.347,14.99 61.978,14.62 L57,9.65 L59.2,7.45 L64.17,12.42 C64.54,12.79 65.15,12.8 65.51,12.42 C65.89,12.05 65.89,11.46 65.51,11.08 L60.54,6.11 L63.41,3.24 L78.75,18.59 L57.9,39.44 L57.9,39.44 Z" id="Shape"></path>
                        <path d="M12.42,62.84 C10.55,64.71 10.55,67.76 12.42,69.63 C14.29,71.5 17.34,71.5 19.21,69.63 C21.09,67.76 21.09,64.71 19.21,62.84 C17.34,60.96 14.29,60.96 12.42,62.84 L12.42,62.84 L12.42,62.84 Z M17.87,68.29 C16.74,69.42 14.9,69.42 13.76,68.29 C12.63,67.16 12.63,65.31 13.76,64.18 C14.9,63.04 16.74,63.04 17.88,64.18 C19.01,65.31 19.01,67.16 17.87,68.29 L17.87,68.29 L17.87,68.29 Z" id="Shape"></path>
                        <path d="M73.87,56.75 L57.19,73.44 C56.82,73.809 56.809,74.41 57.19,74.78 C59.099,76.69 62.679,78.269 65.809,78.269 C67.48,78.269 69.03,77.809 70.12,76.719 L77.16,69.69 C80.29,66.559 78.139,59.679 75.22,56.75 C74.84,56.38 74.25,56.38 73.87,56.75 L73.87,56.75 L73.87,56.75 Z" id="Shape"></path>
                        <path d="M47.95,52.08 L46.6,50.73 L36.83,40.959 L29.75,33.879 C29.38,33.499 28.78,33.499 28.41,33.879 C28.04,34.249 28.04,34.849 28.41,35.219 L29.92,36.729 L45.26,52.069 L46.611,53.419 L51.741,58.549 C52.111,58.919 52.711,58.919 53.081,58.549 C53.451,58.179 53.451,57.579 53.081,57.209 L47.95,52.08 L47.95,52.08 Z" id="Shape"></path>
                        <path d="M52.45,44.88 L37.11,29.54 L35.77,28.2 L35.6,28.03 C35.23,27.66 34.63,27.66 34.26,28.03 C33.89,28.4 33.89,29 34.26,29.37 L34.43,29.54 L40.79,35.9 L51.11,46.22 L52.46,47.571 L57.59,52.701 C57.96,53.071 58.56,53.071 58.93,52.701 C59.3,52.331 59.3,51.731 58.93,51.361 L53.8,46.231 L52.45,44.88 L52.45,44.88 Z" id="Shape"></path>
                        <path d="M73.147,54.682 C72.777,54.312 72.175,54.312 71.806,54.682 L55.117,71.37 C54.747,71.74 54.747,72.341 55.117,72.711 C55.488,73.081 56.089,73.081 56.459,72.711 L73.147,56.023 C73.518,55.652 73.518,55.052 73.147,54.682 L73.147,54.682 L73.147,54.682 Z" id="Shape"></path>
                        <path d="M71.08,52.613 C70.709,52.244 70.108,52.244 69.738,52.613 L53.05,69.303 C52.68,69.673 52.681,70.274 53.05,70.644 C53.423,71.017 54.021,71.014 54.391,70.644 L71.08,53.955 C71.449,53.584 71.452,52.986 71.08,52.613 L71.08,52.613 L71.08,52.613 Z" id="Shape"></path>
                    </g>
                </g>
            </g>
        </g>
    </g>
</svg>