<?xml version="1.0" encoding="UTF-8" standalone="no"?>
<svg width="96px" height="76px" viewBox="0 0 96 76" version="1.1" xmlns="http://www.w3.org/2000/svg" xmlns:xlink="http://www.w3.org/1999/xlink" xmlns:sketch="http://www.bohemiancoding.com/sketch/ns">
    <!-- Generator: Sketch 3.3.3 (12081) - http://www.bohemiancoding.com/sketch -->
    <title>engineering-color</title>
    <desc>Created with Sketch.</desc>
    <defs></defs>
    <g id="Page-1" stroke="none" stroke-width="1" fill="none" fill-rule="evenodd" sketch:type="MSPage">
        <g id="engineering-color" sketch:type="MSLayerGroup" fill="#FFFFFF">
            <g id="Page-1" sketch:type="MSShapeGroup">
                <g id="engineering">
                    <path d="M90.68,41.359 L90.68,9.808 L42.64,9.808 L44.116,8.828 L38.757,0.756 L25.121,9.808 L8.699,9.808 L8.699,20.708 L0.475,26.167 L5.835,34.239 L8.699,32.338 L8.699,72.46 L33.214,72.46 L28.068,75.245 L61.869,75.245 L95.668,75.245 L95.668,56.952 L95.668,38.661 L90.68,41.359 L90.68,41.359 Z M88.811,11.677 L88.811,42.371 L78.549,47.925 L78.549,41.912 L86.412,41.912 L86.412,40.51 L78.549,40.51 L78.549,32.566 L86.412,32.566 L86.412,31.165 L78.549,31.165 L78.549,23.221 L86.412,23.221 L86.412,21.819 L78.549,21.819 L78.549,14.029 L77.148,14.029 L77.148,21.819 L69.204,21.819 L69.204,14.029 L67.803,14.029 L67.803,21.819 L59.86,21.819 L59.86,14.029 L58.458,14.029 L58.458,21.819 L50.515,21.819 L50.515,14.029 L49.11,14.029 L49.11,21.819 L41.166,21.819 L41.166,14.029 L39.764,14.029 L39.764,21.819 L31.821,21.819 L31.821,16.99 L39.824,11.678 L88.811,11.678 L88.811,11.677 L88.811,11.677 Z M59.858,67.347 L67.801,63.048 L67.801,67.52 L59.858,67.52 L59.858,67.347 L59.858,67.347 Z M69.203,62.289 L72.319,60.602 L77.147,60.602 L77.147,67.519 L73.537,67.519 L69.203,67.519 L69.203,62.289 L69.203,62.289 Z M74.909,59.201 L77.147,57.99 L77.147,59.201 L74.909,59.201 L74.909,59.201 Z M78.549,60.603 L86.412,60.603 L86.412,59.202 L78.549,59.202 L78.549,57.232 L87.537,52.368 L87.537,59.944 L87.537,67.52 L78.549,67.52 L78.549,60.603 L78.549,60.603 Z M77.147,31.165 L69.203,31.165 L69.203,23.221 L77.147,23.221 L77.147,31.165 L77.147,31.165 Z M77.147,32.566 L77.147,40.51 L69.203,40.51 L69.203,32.566 L77.147,32.566 L77.147,32.566 Z M77.147,41.912 L77.147,48.683 L74.98,49.855 L69.203,49.855 L69.203,41.912 L77.147,41.912 L77.147,41.912 Z M72.391,51.257 L69.203,52.983 L69.203,51.257 L72.391,51.257 L72.391,51.257 Z M67.802,31.165 L59.859,31.165 L59.859,23.221 L67.802,23.221 L67.802,31.165 L67.802,31.165 Z M67.802,32.566 L67.802,40.51 L59.859,40.51 L59.859,32.566 L67.802,32.566 L67.802,32.566 Z M67.802,41.912 L67.802,49.855 L59.859,49.855 L59.859,41.912 L67.802,41.912 L67.802,41.912 Z M67.802,51.257 L67.802,53.74 L61.868,56.952 L59.858,58.04 L59.858,51.257 L67.802,51.257 L67.802,51.257 Z M58.456,31.165 L50.513,31.165 L50.513,23.221 L58.456,23.221 L58.456,31.165 L58.456,31.165 Z M58.456,32.566 L58.456,40.51 L50.513,40.51 L50.513,32.566 L58.456,32.566 L58.456,32.566 Z M58.456,41.912 L58.456,49.855 L50.513,49.855 L50.513,41.912 L58.456,41.912 L58.456,41.912 Z M58.456,51.257 L58.456,58.798 L57.713,59.201 L50.513,59.201 L50.513,51.257 L58.456,51.257 L58.456,51.257 Z M55.121,60.603 L50.513,63.098 L50.513,60.603 L55.121,60.603 L55.121,60.603 Z M49.11,31.165 L41.166,31.165 L41.166,23.221 L49.11,23.221 L49.11,31.165 L49.11,31.165 Z M49.11,32.566 L49.11,40.51 L41.166,40.51 L41.166,32.566 L49.11,32.566 L49.11,32.566 Z M49.11,41.912 L49.11,49.855 L41.166,49.855 L41.166,41.912 L49.11,41.912 L49.11,41.912 Z M49.11,51.257 L49.11,59.201 L41.166,59.201 L41.166,51.257 L49.11,51.257 L49.11,51.257 Z M49.11,60.603 L49.11,63.857 L41.166,68.156 L41.166,60.603 L49.11,60.603 L49.11,60.603 Z M22.476,51.257 L30.42,51.257 L30.42,59.201 L22.476,59.201 L22.476,51.257 L22.476,51.257 Z M22.476,49.855 L22.476,41.912 L30.42,41.912 L30.42,49.855 L22.476,49.855 L22.476,49.855 Z M22.476,40.51 L22.476,32.566 L30.42,32.566 L30.42,40.51 L22.476,40.51 L22.476,40.51 Z M22.476,31.165 L22.476,23.221 L30.42,23.221 L30.42,31.165 L22.476,31.165 L22.476,31.165 Z M24.547,21.819 L30.42,17.921 L30.42,21.819 L24.547,21.819 L24.547,21.819 Z M31.821,51.257 L39.764,51.257 L39.764,59.201 L31.821,59.201 L31.821,51.257 L31.821,51.257 Z M31.821,49.855 L31.821,41.912 L39.764,41.912 L39.764,49.855 L31.821,49.855 L31.821,49.855 Z M31.821,40.51 L31.821,32.566 L39.764,32.566 L39.764,40.51 L31.821,40.51 L31.821,40.51 Z M31.821,31.165 L31.821,23.221 L39.764,23.221 L39.764,31.165 L31.821,31.165 L31.821,31.165 Z M10.568,11.677 L22.304,11.677 L10.568,19.468 L10.568,11.677 L10.568,11.677 Z M10.568,70.591 L10.568,31.099 L21.073,24.124 L21.073,31.165 L13.21,31.165 L13.21,32.566 L21.074,32.566 L21.074,40.51 L13.21,40.51 L13.21,41.912 L21.074,41.912 L21.074,49.855 L13.21,49.855 L13.21,51.256 L21.074,51.256 L21.074,59.2 L13.21,59.2 L13.21,60.601 L21.074,60.601 L21.074,68.389 L22.476,68.389 L22.476,60.601 L30.42,60.601 L30.42,68.389 L31.822,68.389 L31.822,60.601 L39.765,60.601 L39.765,68.389 L40.732,68.389 L36.668,70.589 L10.568,70.589 L10.568,70.591 L10.568,70.591 Z" id="Shape"></path>
                </g>
            </g>
        </g>
    </g>
</svg>