<?xml version="1.0" encoding="UTF-8" standalone="no"?>
<svg width="80px" height="61px" viewBox="0 0 80 61" version="1.1" xmlns="http://www.w3.org/2000/svg" xmlns:xlink="http://www.w3.org/1999/xlink" xmlns:sketch="http://www.bohemiancoding.com/sketch/ns">
    <!-- Generator: Sketch 3.3.3 (12081) - http://www.bohemiancoding.com/sketch -->
    <title>strategy-color</title>
    <desc>Created with Sketch.</desc>
    <defs></defs>
    <g id="Page-1" stroke="none" stroke-width="1" fill="none" fill-rule="evenodd" sketch:type="MSPage">
        <g id="strategy-color" sketch:type="MSLayerGroup" fill="#FFFFFF">
            <g id="Page-1" sketch:type="MSShapeGroup">
                <g id="strategy-+-Rectangle-1">
                    <g id="strategy">
                        <g id="Page-1">
                            <g id="strategy">
                                <path d="M49.493,6.009 L49.493,4.935 C49.532,4.948 49.576,4.957 49.615,4.97 C50.34,5.212 51.139,4.835 51.393,4.107 C51.646,3.377 51.26,2.58 50.531,2.328 C44.426,0.21 36.062,0.239 30.018,2.397 C29.291,2.655 28.912,3.456 29.171,4.182 C29.376,4.753 29.913,5.11 30.487,5.11 C30.618,5.11 30.751,5.08 30.883,5.041 L30.883,6.009 L0.724,6.009 L0.724,54.153 C0.724,57.636 3.558,60.471 7.041,60.471 L73.214,60.471 C76.697,60.471 79.531,57.636 79.531,54.153 L79.531,6.009 L49.493,6.009 L49.493,6.009 Z M32.745,4.494 C37.331,3.288 42.978,3.248 47.629,4.395 L47.629,6.01 L32.745,6.01 L32.745,4.494 L32.745,4.494 Z M77.667,54.154 C77.667,55.701 76.873,57.064 75.673,57.862 L75.673,57.667 L74.183,57.667 L74.183,58.494 C73.87,58.564 73.548,58.607 73.214,58.607 L7.041,58.607 C6.856,58.607 6.68,58.574 6.501,58.552 L6.501,57.666 L5.011,57.666 L5.011,58.094 C3.579,57.353 2.587,55.874 2.587,54.152 L2.587,41.802 L5.011,41.802 L5.011,42.734 L6.501,42.734 L6.501,41.802 L33.136,41.802 C33.444,44.214 34.92,45.994 36.758,45.994 L44.739,45.994 C46.576,45.994 48.052,44.214 48.36,41.802 L74.183,41.802 L74.183,42.734 L75.673,42.734 L75.673,41.802 L77.667,41.802 L77.667,54.154 L77.667,54.154 Z M34.934,40.872 C34.934,38.952 35.896,37.613 36.758,37.613 L44.739,37.613 C45.601,37.613 46.562,38.952 46.562,40.872 C46.562,42.794 45.601,44.133 44.739,44.133 L36.758,44.133 C35.896,44.133 34.934,42.794 34.934,40.872 L34.934,40.872 L34.934,40.872 Z M77.667,39.941 L48.36,39.941 C48.273,39.259 48.094,38.63 47.838,38.076 L48.643,38.076 L48.643,36.584 L46.78,36.584 L46.78,36.588 C46.199,36.06 45.501,35.751 44.74,35.751 L36.759,35.751 C36,35.751 35.304,36.059 34.724,36.584 L33.383,36.584 L33.383,38.076 L33.66,38.076 C33.404,38.63 33.224,39.259 33.138,39.941 L2.588,39.941 L2.588,7.872 L5.012,7.872 L5.012,8.804 L6.502,8.804 L6.502,7.872 L74.183,7.872 L74.183,8.804 L75.673,8.804 L75.673,7.872 L77.667,7.872 L77.667,39.941 L77.667,39.941 Z M11.301,38.076 L14.981,38.076 L14.981,36.584 L11.301,36.584 L11.301,38.076 L11.301,38.076 Z M6.502,12.614 L5.012,12.614 L5.012,16.422 L6.502,16.422 L6.502,12.614 L6.502,12.614 Z M6.502,27.85 L5.012,27.85 L5.012,31.658 L6.502,31.658 L6.502,27.85 L6.502,27.85 Z M6.502,20.231 L5.012,20.231 L5.012,24.039 L6.502,24.039 L6.502,20.231 L6.502,20.231 Z M18.661,38.076 L22.342,38.076 L22.342,36.584 L18.661,36.584 L18.661,38.076 L18.661,38.076 Z M6.502,35.466 L5.012,35.466 L5.012,38.075 L7.62,38.075 L7.62,36.583 L6.502,36.583 L6.502,35.466 L6.502,35.466 Z M26.022,38.076 L29.702,38.076 L29.702,36.584 L26.022,36.584 L26.022,38.076 L26.022,38.076 Z M66.087,38.076 L69.576,38.076 L69.576,36.584 L66.087,36.584 L66.087,38.076 L66.087,38.076 Z M74.183,36.584 L73.065,36.584 L73.065,38.076 L75.673,38.076 L75.673,35.467 L74.183,35.467 L74.183,36.584 L74.183,36.584 Z M74.183,31.658 L75.673,31.658 L75.673,27.85 L74.183,27.85 L74.183,31.658 L74.183,31.658 Z M74.183,16.423 L75.673,16.423 L75.673,12.615 L74.183,12.615 L74.183,16.423 L74.183,16.423 Z M74.183,24.041 L75.673,24.041 L75.673,20.233 L74.183,20.233 L74.183,24.041 L74.183,24.041 Z M52.131,38.076 L55.62,38.076 L55.62,36.584 L52.131,36.584 L52.131,38.076 L52.131,38.076 Z M59.109,38.076 L62.597,38.076 L62.597,36.584 L59.109,36.584 L59.109,38.076 L59.109,38.076 Z M5.011,48.709 L6.501,48.709 L6.501,45.721 L5.011,45.721 L5.011,48.709 L5.011,48.709 Z M5.011,54.681 L6.501,54.681 L6.501,51.695 L5.011,51.695 L5.011,54.681 L5.011,54.681 Z M74.183,48.709 L75.673,48.709 L75.673,45.723 L74.183,45.723 L74.183,48.709 L74.183,48.709 Z M74.183,54.683 L75.673,54.683 L75.673,51.695 L74.183,51.695 L74.183,54.683 L74.183,54.683 Z" id="Shape"></path>
                            </g>
                        </g>
                    </g>
                    <rect id="Rectangle-1" x="34" y="36" width="14" height="10" rx="8"></rect>
                </g>
            </g>
        </g>
    </g>
</svg>