<?xml version="1.0" encoding="utf-8"?>
<!-- Generator: Adobe Illustrator 16.0.4, SVG Export Plug-In . SVG Version: 6.00 Build 0)  -->
<!DOCTYPE svg PUBLIC "-//W3C//DTD SVG 1.1//EN" "http://www.w3.org/Graphics/SVG/1.1/DTD/svg11.dtd">
<svg version="1.1" id="Layer_1" xmlns="http://www.w3.org/2000/svg" xmlns:xlink="http://www.w3.org/1999/xlink" x="0px" y="0px"
	 width="720px" height="720px" viewBox="0 0 720 720" enable-background="new 0 0 720 720" xml:space="preserve">
<rect x="9.661" y="9.918" fill="#80C26C" width="350.21" height="350.214"/>
<rect x="359.871" y="9.918" fill="#83C2BA" width="350.208" height="350.214"/>
<rect x="9.661" y="360.132" fill="#3F9A8E" width="350.21" height="350.21"/>
<rect x="359.871" y="360.132" fill="#3FAA6D" width="350.208" height="350.21"/>
<g>
	<g>
		<defs>
			<rect id="SVGID_1_" y="-15.843" width="946.329" height="735.843"/>
		</defs>
		<clipPath id="SVGID_2_">
			<use xlink:href="#SVGID_1_"  overflow="visible"/>
		</clipPath>
		
			<line clip-path="url(#SVGID_2_)" fill="none" stroke="#F2F3F3" stroke-width="19.32" x1="9.661" y1="360.132" x2="710.079" y2="360.132"/>
	</g>
	<g>
		<defs>
			<rect id="SVGID_3_" y="-15.843" width="946.329" height="735.843"/>
		</defs>
		<clipPath id="SVGID_4_">
			<use xlink:href="#SVGID_3_"  overflow="visible"/>
		</clipPath>
		
			<line clip-path="url(#SVGID_4_)" fill="none" stroke="#F2F3F3" stroke-width="19.32" x1="359.871" y1="720" x2="359.871" y2="19.581"/>
	</g>
	<g>
		<defs>
			<rect id="SVGID_5_" y="-15.843" width="946.329" height="735.843"/>
		</defs>
		<clipPath id="SVGID_6_">
			<use xlink:href="#SVGID_5_"  overflow="visible"/>
		</clipPath>
		
			<line clip-path="url(#SVGID_6_)" fill="none" stroke="#F2F3F3" stroke-width="19.32" x1="2.839" y1="9.921" x2="714.457" y2="9.921"/>
	</g>
	<g>
		<defs>
			<rect id="SVGID_7_" y="-15.843" width="946.329" height="735.843"/>
		</defs>
		<clipPath id="SVGID_8_">
			<use xlink:href="#SVGID_7_"  overflow="visible"/>
		</clipPath>
		
			<line clip-path="url(#SVGID_8_)" fill="none" stroke="#F2F3F3" stroke-width="19.32" x1="710.079" y1="0.263" x2="710.079" y2="717.164"/>
	</g>
	<g>
		<defs>
			<rect id="SVGID_9_" y="-15.843" width="946.329" height="735.843"/>
		</defs>
		<clipPath id="SVGID_10_">
			<use xlink:href="#SVGID_9_"  overflow="visible"/>
		</clipPath>
		
			<line clip-path="url(#SVGID_10_)" fill="none" stroke="#F2F3F3" stroke-width="19.32" x1="0" y1="710.342" x2="719.74" y2="710.342"/>
	</g>
	<g>
		<defs>
			<rect id="SVGID_11_" y="-15.843" width="946.329" height="735.843"/>
		</defs>
		<clipPath id="SVGID_12_">
			<use xlink:href="#SVGID_11_"  overflow="visible"/>
		</clipPath>
		
			<line clip-path="url(#SVGID_12_)" fill="none" stroke="#F2F3F3" stroke-width="19.32" x1="9.658" y1="0.263" x2="9.658" y2="705.704"/>
	</g>
</g>
<g enable-background="new    ">
	<path fill="#F2F3F3" d="M594.105,226.557c-3.002,7.326-7.293,13.604-12.873,18.837c-5.582,5.233-12.315,9.314-20.197,12.244
		c-7.885,2.931-16.639,4.396-26.267,4.396c-9.769,0-18.56-1.465-26.372-4.396c-7.816-2.93-14.441-7.011-19.883-12.244
		c-5.442-5.232-9.629-11.511-12.559-18.837c-2.93-7.325-4.395-15.452-4.395-24.383v-92.302h35.58v89.371
		c0,4.049,0.523,7.885,1.57,11.512c1.047,3.63,2.648,6.874,4.813,9.732c2.161,2.861,5.023,5.128,8.581,6.802
		c3.559,1.675,7.85,2.512,12.873,2.512c5.022,0,9.312-0.837,12.871-2.512c3.559-1.674,6.453-3.94,8.686-6.802
		c2.23-2.858,3.836-6.103,4.814-9.732c0.975-3.627,1.465-7.463,1.465-11.512v-89.371h35.791v92.302
		C598.605,211.104,597.104,219.231,594.105,226.557z"/>
</g>
<g enable-background="new    ">
	<path fill="#F2F3F3" d="M216.421,492.265c-3.071-3.905-7.083-7.012-12.035-9.314c-4.955-2.302-9.732-3.453-14.337-3.453
		c-2.374,0-4.781,0.209-7.221,0.628c-2.443,0.419-4.641,1.223-6.593,2.407c-1.956,1.187-3.594,2.721-4.918,4.604
		c-1.328,1.884-1.988,4.29-1.988,7.221c0,2.512,0.523,4.604,1.569,6.279c1.047,1.674,2.581,3.139,4.605,4.395
		c2.021,1.256,4.428,2.407,7.221,3.454c2.79,1.046,5.929,2.129,9.418,3.244c5.023,1.674,10.256,3.525,15.697,5.546
		c5.442,2.024,10.393,4.71,14.86,8.059c4.464,3.349,8.163,7.502,11.093,12.453c2.93,4.954,4.395,11.129,4.395,18.523
		c0,8.512-1.57,15.874-4.709,22.081c-3.14,6.21-7.362,11.338-12.663,15.383c-5.305,4.049-11.375,7.048-18.209,9
		c-6.838,1.953-13.886,2.931-21.139,2.931c-10.605,0-20.861-1.852-30.767-5.547c-9.909-3.695-18.141-8.964-24.697-15.802
		l23.441-23.86c3.627,4.467,8.405,8.198,14.337,11.197c5.929,3.002,11.826,4.5,17.686,4.5c2.649,0,5.232-0.277,7.744-0.837
		c2.512-0.556,4.709-1.465,6.593-2.721s3.382-2.931,4.5-5.023c1.115-2.093,1.674-4.604,1.674-7.535c0-2.789-0.7-5.16-2.093-7.116
		c-1.396-1.952-3.385-3.731-5.965-5.337c-2.583-1.603-5.792-3.067-9.627-4.396c-3.839-1.324-8.199-2.753-13.082-4.29
		c-4.745-1.534-9.386-3.349-13.918-5.442c-4.536-2.093-8.581-4.777-12.139-8.058c-3.558-3.277-6.42-7.254-8.582-11.931
		c-2.165-4.673-3.244-10.36-3.244-17.058c0-8.231,1.674-15.278,5.023-21.14c3.349-5.86,7.744-10.674,13.186-14.441
		c5.441-3.768,11.58-6.521,18.418-8.268c6.835-1.743,13.742-2.616,20.721-2.616c8.372,0,16.917,1.537,25.64,4.604
		c8.718,3.071,16.358,7.607,22.918,13.604L216.421,492.265z"/>
</g>
<g enable-background="new    ">
	<path fill="#F2F3F3" d="M607.604,527.427c0,12.977-2.407,24.174-7.221,33.593c-4.813,9.418-11.165,17.162-19.046,23.232
		c-7.885,6.069-16.78,10.537-26.686,13.395c-9.91,2.862-19.956,4.291-30.14,4.291h-55.255V453.753h53.58
		c10.465,0,20.789,1.224,30.977,3.663c10.184,2.442,19.256,6.488,27.209,12.14c7.953,5.65,14.37,13.222,19.256,22.709
		C605.162,501.755,607.604,513.476,607.604,527.427z M570.35,527.427c0-8.372-1.361-15.312-4.082-20.825
		c-2.721-5.511-6.351-9.906-10.883-13.187c-4.536-3.276-9.7-5.614-15.488-7.011c-5.792-1.394-11.758-2.094-17.896-2.094h-17.79
		v86.65h16.953c6.416,0,12.59-0.732,18.523-2.197c5.928-1.465,11.161-3.872,15.697-7.221c4.532-3.35,8.162-7.813,10.883-13.396
		C568.988,542.568,570.35,535.661,570.35,527.427z"/>
</g>
<g enable-background="new    ">
	<path fill="#FFFFFF" d="M190.688,263.18c-43.78,0-76.296-33.792-76.296-76.51v-0.425c0-42.292,31.879-76.934,77.571-76.934
		c28.054,0,44.843,9.351,58.657,22.952l-20.828,24.016c-11.476-10.414-23.165-16.789-38.042-16.789
		c-25.078,0-43.142,20.827-43.142,46.33v0.425c0,25.503,17.639,46.756,43.142,46.756c17.002,0,27.416-6.801,39.104-17.427
		l20.828,21.039C236.381,252.979,219.379,263.18,190.688,263.18z"/>
</g>
</svg>
