<?xml version="1.0" encoding="UTF-8" standalone="no"?>
<svg width="578px" height="595px" viewBox="0 0 578 595" version="1.1" xmlns="http://www.w3.org/2000/svg" xmlns:xlink="http://www.w3.org/1999/xlink" xmlns:sketch="http://www.bohemiancoding.com/sketch/ns">
    <!-- Generator: Sketch 3.3.3 (12081) - http://www.bohemiancoding.com/sketch -->
    <title>cap</title>
    <desc>Created with Sketch.</desc>
    <defs></defs>
    <g id="Page-1" stroke="none" stroke-width="1" fill="none" fill-rule="evenodd" sketch:type="MSPage">
        <g id="cap" sketch:type="MSLayerGroup" fill="#225D2F">
            <path d="M118.667,450.583 L9.993,571.414 C9.663,571.792 9.309,572.452 9.215,572.923 L4.111,594.418 C3.996,594.862 4.23,595.028 4.63,594.742 L29.582,577.835 C29.983,577.558 30.571,577.038 30.853,576.661 L118.668,468.335" id="Shape" sketch:type="MSShapeGroup"></path>
            <path d="M63.993,0.146 C49.292,47.47 36.947,94.96 19.802,140.619 C-15.97,235.951 0.305,322.46 58.749,402.964 C73.752,423.681 90.874,442.825 110.558,467.053 C131.515,414.112 152.844,367.663 168.413,319.379 C210.486,188.794 183.749,92.031 63.993,0.146 L63.993,0.146 Z M91.473,144.806 L108.079,408.15 C68.155,273.251 91.473,144.806 91.473,144.806 L91.473,144.806 Z" id="Shape" sketch:type="MSShapeGroup"></path>
            <path d="M412.906,103.777 C95.481,121.463 110.158,467.616 110.345,467.052 L150.047,450.025 C501.898,271.534 412.906,103.777 412.906,103.777 L412.906,103.777 Z M142.698,408.16 C196.751,266.488 311.992,194.422 311.992,194.422 L142.698,408.16 L142.698,408.16 Z" id="Shape" sketch:type="MSShapeGroup"></path>
            <path d="M110.205,466.414 C159.594,478.927 211.83,492.569 264.368,505.175 C278.525,508.584 293.577,510.91 308.04,510.137 C414.719,504.586 494.846,443.862 577.513,380.784 C420.104,299.772 227.914,351.06 110.205,466.414 L110.205,466.414 Z M157.476,434.301 L407.357,398.2 C349.607,446.638 157.476,434.301 157.476,434.301 L157.476,434.301 Z" id="Shape" sketch:type="MSShapeGroup"></path>
        </g>
    </g>
</svg>