<?xml version="1.0" encoding="UTF-8" standalone="no"?>
<svg width="325px" height="585px" viewBox="0 0 325 585" version="1.1" xmlns="http://www.w3.org/2000/svg" xmlns:xlink="http://www.w3.org/1999/xlink" xmlns:sketch="http://www.bohemiancoding.com/sketch/ns">
    <!-- Generator: Sketch 3.3.3 (12081) - http://www.bohemiancoding.com/sketch -->
    <title>futures</title>
    <desc>Created with Sketch.</desc>
    <defs></defs>
    <g id="Page-1" stroke="none" stroke-width="1" fill="none" fill-rule="evenodd" sketch:type="MSPage">
        <g id="futures" sketch:type="MSLayerGroup" fill="#FCD83F">
            <path d="M139.837,365.006 L139.837,409.018 L200.34,409.018 C200.34,397.207 200.232,385.462 200.372,373.717 C200.47,365.483 198.043,355.19 202.029,349.62 C205.8,344.397 216.483,344.029 224.154,341.732 C233.516,338.915 242.931,336.314 253.3,333.367 L253.3,409.472 C258.782,409.472 263.507,409.341 268.209,409.493 C277.462,409.796 283.204,415.495 283.573,424.64 C283.724,427.912 283.292,431.227 283.703,434.456 C284.917,443.883 281.622,451.337 274.169,456.906 C263.235,465.054 260.028,475.737 260.668,489.217 C261.644,510.084 261.34,531.061 260.646,551.973 C260.462,557.174 257.483,562.785 254.406,567.272 C245.207,580.708 189.732,584.608 173.339,584.001 C138.596,582.744 208.141,583.784 173.339,584.001 C166.508,584.044 99.964,581.01 94.769,576.85 C82.52,567.012 77.839,555.223 78.928,539.361 C80.266,519.794 79.08,500.051 79.334,480.397 C79.426,473.333 77.471,467.569 72.059,462.997 C70.905,462.021 70.049,460.656 68.83,459.833 C54.593,450.406 55.584,436.082 56.825,421.888 C57.427,414.954 63.57,409.906 70.938,409.536 C75.906,409.298 80.901,409.493 86.784,409.493 C86.784,401.063 86.584,393.327 86.914,385.612 C87.017,383.532 88.29,380.174 89.742,379.718 C106.032,374.648 122.463,370.033 139.837,365.006" id="Shape" sketch:type="MSShapeGroup"></path>
            <path d="M32.359,282.659 C15.64,282.508 2.779,271.477 0.737,257.284 C-1.436,242.142 6.82,227.894 21.41,223.593 C40.946,217.823 60.741,212.882 80.433,207.589 C148.022,189.506 215.617,171.39 283.227,153.339 C302.361,148.247 318.331,156.632 323.165,174.093 C327.91,191.191 317.986,206.972 298.937,212.086 C212.875,235.164 126.802,258.15 40.702,281.143 C37.332,282.031 33.811,282.399 32.359,282.659" id="Shape" sketch:type="MSShapeGroup"></path>
            <path d="M324.553,95.582 C324.553,109.885 315.863,121.109 301.106,125.119 C252.749,138.186 204.371,151.145 156.003,164.125 C117.836,174.359 79.67,184.576 41.477,194.75 C22.548,199.777 6.518,191.163 1.783,173.567 C-2.746,156.827 7.087,141.051 25.691,136.035 C111.986,112.837 198.303,89.715 284.659,66.712 C305.829,61.067 324.53,74.866 324.553,95.582" id="Shape" sketch:type="MSShapeGroup"></path>
            <path d="M43.909,326.91 C43.909,312.65 52.56,301.447 67.431,297.394 C117.701,283.764 168.018,270.302 218.335,256.79 C237.784,251.562 257.223,246.334 276.704,241.312 C295.123,236.539 311.051,245.402 315.579,262.744 C319.935,279.365 310.162,295.227 292.306,300.038 C222.832,318.718 153.326,337.397 83.797,355.925 C62.806,361.495 43.92,347.562 43.909,326.91" id="Shape" sketch:type="MSShapeGroup"></path>
            <path d="M23.188,73.717 C23.263,58.83 32.441,47.978 48.948,43.547 C96.547,30.811 144.177,18.107 191.78,5.413 C196.645,4.119 201.468,2.667 206.364,1.513 C223.072,-2.425 239.238,6.871 243.637,22.88 C248.035,38.889 239.042,55.434 222.291,60.006 C168.723,74.714 115.062,89.195 61.332,103.276 C41.303,108.524 23.09,93.865 23.188,73.717" id="Shape" sketch:type="MSShapeGroup"></path>
        </g>
    </g>
</svg>