<?xml version="1.0" encoding="UTF-8" standalone="no"?>
<svg width="557px" height="557px" viewBox="0 0 557 557" version="1.1" xmlns="http://www.w3.org/2000/svg" xmlns:xlink="http://www.w3.org/1999/xlink" xmlns:sketch="http://www.bohemiancoding.com/sketch/ns">
    <!-- Generator: Sketch 3.3.3 (12081) - http://www.bohemiancoding.com/sketch -->
    <title>srf-color</title>
    <desc>Created with Sketch.</desc>
    <defs></defs>
    <g id="Page-1" stroke="none" stroke-width="1" fill="none" fill-rule="evenodd" sketch:type="MSPage">
        <g id="srf-color" sketch:type="MSLayerGroup">
            <g id="Group" sketch:type="MSShapeGroup">
                
                <path d="M0.695,183.48 C5.834,181.213 11.038,179.08 16.103,176.658 C59.184,156.062 102.129,135.182 145.34,114.865 C173.557,101.597 202.683,99.665 231.68,112.085 C249.834,119.861 267.366,129.092 285.175,137.674 C299.652,144.651 314.179,151.524 328.563,158.687 C332.249,160.523 335.726,162.991 338.855,165.686 C344.48,170.53 345.154,176.346 340.201,181.809 C336.365,186.039 331.959,190.173 327.007,192.892 C311.817,201.23 296.31,209.004 280.794,216.731 C267.651,223.276 254.338,229.481 241.05,235.73 C239.983,236.232 238.305,236.386 237.288,235.905 C217.229,226.405 197.226,216.79 177.215,207.188 C177.018,207.093 176.881,206.876 176.409,206.421 C197.221,196.434 217.89,186.516 239.406,176.191 C236.045,174.561 233.498,173.314 230.941,172.088 C218.64,166.192 206.369,160.228 193.988,154.502 C192.484,153.806 190.088,153.79 188.598,154.496 C148.276,173.622 108.017,192.884 67.753,212.132 C66.746,212.614 65.795,213.214 64.169,214.12 C66.295,215.221 67.853,216.079 69.453,216.849 C103.53,233.226 137.595,249.629 171.726,265.891 C174.378,267.155 175.091,268.674 175.087,271.437 C175.012,319.621 175.063,367.804 175.002,415.989 C174.993,423.347 175.419,430.855 174.156,438.032 C171.717,451.899 161.877,459.58 147.76,459.87 C138.279,460.065 129.354,458.287 120.652,454.037 C80.76,434.553 40.698,415.414 0.696,396.15 L0.696,305.8 C20.714,315.382 40.716,324.997 60.77,334.501 C63.071,335.592 63.959,336.897 63.897,339.495 C63.713,347.25 63.94,355.015 63.772,362.769 C63.714,365.454 64.535,366.912 67.03,368.081 C80.951,374.607 94.784,381.321 108.656,387.954 C109.628,388.419 110.67,388.737 111.864,389.194 C111.993,388.239 112.107,387.788 112.108,387.338 C112.119,358.27 112.098,329.203 112.172,300.136 C112.178,297.895 110.95,297.233 109.292,296.44 C86.347,285.472 63.438,274.428 40.493,263.461 C27.253,257.133 13.963,250.91 0.696,244.639 C0.695,224.254 0.695,203.867 0.695,183.48 L0.695,183.48 Z" id="Shape" fill="#666666"></path>
                <path d="M333.601,556.696 C324.166,552.066 314.765,547.368 305.291,542.821 C273.29,527.461 241.278,512.121 209.211,496.898 C206.851,495.778 207.183,494.162 207.183,492.38 C207.175,446.977 207.177,401.573 207.177,356.17 C207.177,332.773 207.214,309.376 207.121,285.98 C207.111,283.562 207.829,282.329 210.047,281.274 C235.112,269.365 259.7,256.328 285.274,245.648 C308.336,236.016 332.588,233.162 356.275,244.853 C372.396,252.809 382.06,266.614 388.496,282.907 C395.042,299.478 397.583,316.832 397.716,334.539 C397.882,356.66 397.795,378.784 397.701,400.906 C397.691,403.414 398.332,404.779 400.726,405.928 C441.068,425.296 481.357,444.777 521.656,464.234 C522.47,464.627 523.274,465.043 524.709,465.761 C521.391,467.384 518.579,468.796 515.735,470.143 C498.6,478.261 481.442,486.331 464.338,494.513 C462.256,495.509 460.587,495.53 458.491,494.521 C418.167,475.124 377.8,455.817 337.477,436.414 C335.173,435.306 333.358,435.32 331.042,436.433 C312.491,445.346 293.871,454.116 275.277,462.94 C274.057,463.518 272.875,464.176 271.001,465.145 C313.517,485.624 355.411,505.8 397.859,526.246 C386.041,531.927 374.82,537.29 363.627,542.709 C354.065,547.339 344.533,552.032 334.989,556.697 C334.527,556.696 334.064,556.696 333.601,556.696 L333.601,556.696 Z M270.846,404.02 C272.038,403.616 272.804,403.439 273.495,403.109 C293.1,393.741 312.681,384.322 332.323,375.031 C334.259,374.114 334.345,372.845 334.277,371.166 C333.583,354.412 333.126,337.645 332.131,320.909 C331.687,313.429 330.43,305.918 326.639,299.213 C323.749,294.101 319.734,292.345 314.073,293.761 C310.953,294.541 307.854,295.606 304.936,296.954 C294.654,301.706 284.488,306.708 274.201,311.447 C271.652,312.622 270.765,314.095 270.777,316.943 C270.894,344.613 270.847,372.285 270.847,399.956 C270.846,401.191 270.846,402.428 270.846,404.02 L270.846,404.02 Z" id="Shape" fill="#CC0000"></path>
                <path d="M382.251,0.695 C389.771,4.479 397.26,8.324 404.815,12.034 C417.58,18.301 430.385,24.48 443.169,30.706 C443.557,30.895 443.893,31.192 444.662,31.719 C413.108,46.844 381.906,61.799 350.211,76.992 C351.265,77.754 351.806,78.283 352.452,78.593 C377.149,90.445 401.867,102.252 426.542,114.151 C428.73,115.206 430.496,115.199 432.691,114.137 C452.046,104.773 471.442,95.492 490.882,86.309 C492.105,85.731 494.057,85.666 495.259,86.233 C515.018,95.548 534.71,105.003 554.412,114.437 C554.716,114.583 554.954,114.861 555.627,115.404 C553.124,116.663 550.839,117.862 548.514,118.976 C531.315,127.22 514.146,135.53 496.867,143.603 C493.763,145.053 492.772,146.809 492.777,150.169 C492.873,217.915 492.819,285.661 492.925,353.406 C492.931,357.204 492.04,359.317 488.335,361.035 C469.775,369.643 451.386,378.617 432.929,387.447 C432.025,387.88 431.049,388.163 429.741,388.654 L429.741,384.21 C429.741,316.232 429.722,248.254 429.801,180.277 C429.805,177.279 429.13,175.609 426.187,174.206 C374.008,149.344 321.862,124.414 269.831,99.245 C264.411,96.623 259.219,92.969 254.886,88.792 C247.761,81.922 247.978,74.024 254.539,66.608 C259.615,60.871 266.037,56.957 272.842,53.661 C308.112,36.582 343.404,19.549 378.679,2.481 C379.689,1.992 380.599,1.295 381.555,0.694 C381.787,0.695 382.02,0.695 382.251,0.695 L382.251,0.695 Z" id="Shape" fill="#666666"></path>
            </g>
        </g>
    </g>
</svg>