<?xml version="1.0" encoding="UTF-8" standalone="no"?>
<svg width="406px" height="406px" viewBox="0 0 406 406" version="1.1" xmlns="http://www.w3.org/2000/svg" xmlns:xlink="http://www.w3.org/1999/xlink" xmlns:sketch="http://www.bohemiancoding.com/sketch/ns">
    <!-- Generator: Sketch 3.3.3 (12081) - http://www.bohemiancoding.com/sketch -->
    <title>Artboard</title>
    <desc>Created with Sketch.</desc>
    <defs></defs>
    <g id="Page-1" stroke="none" stroke-width="1" fill="none" fill-rule="evenodd" sketch:type="MSPage">
        <g id="Artboard" sketch:type="MSArtboardGroup">
            <g id="Layer_2" sketch:type="MSLayerGroup" transform="translate(36.000000, 0.000000)">
                <path d="M0,157.702 L143.999,240.844 L144.143,405.849 C30.125,343.482 -0.001,337.836 0.046,216.592 C0.073,147.31 0.046,217.75 0.046,216.592 L0,157.702 L0,157.702 Z" id="Shape" fill="#99CA3C" sketch:type="MSShapeGroup"></path>
                <path d="M334.007,157.706 L190.008,240.848 L189.977,405.849 C303.995,343.482 334.007,337.84 333.96,216.596 C333.935,147.314 333.96,217.754 333.96,216.596 L334.007,157.706 L334.007,157.706 Z" id="Shape" fill="#99CA3C" sketch:type="MSShapeGroup"></path>
                <path d="M83.661,95.625 L254.003,0 L2.003,104 L83.003,96 L254.003,0 L334.999,104.283 L166.999,201.275 L83.661,95.625 Z" id="Shape" fill="#F7901E" sketch:type="MSShapeGroup"></path>
                <g id="Layer_4"></g>
            </g>
        </g>
    </g>
</svg>