<?xml version="1.0" encoding="UTF-8" standalone="no"?>
<svg width="227px" height="287px" viewBox="0 0 227 287" version="1.1" xmlns="http://www.w3.org/2000/svg" xmlns:xlink="http://www.w3.org/1999/xlink" xmlns:sketch="http://www.bohemiancoding.com/sketch/ns">
    <!-- Generator: Sketch 3.3.3 (12081) - http://www.bohemiancoding.com/sketch -->
    <title>Shape</title>
    <desc>Created with Sketch.</desc>
    <defs></defs>
    <g id="Page-1" stroke="none" stroke-width="1" fill="none" fill-rule="evenodd" sketch:type="MSPage">
        <g id="tech" sketch:type="MSLayerGroup" transform="translate(1.000000, 1.000000)" stroke="#FFFFFF" fill="#A92523">
            <path d="M77.261,201.695 C77.261,201.695 65.637,225.374 64.345,231.4 C63.053,237.427 58.748,257.232 58.748,257.232 L109.118,284.353 C109.118,284.353 106.274,268.297 105.243,266.488 C104.055,264.4 77.261,201.695 77.261,201.695 L77.261,201.695 Z M59.61,159.075 C58.654,157.518 57.696,154.802 56.814,151.687 C54.519,143.591 52.723,132.813 52.723,132.813 L4.72,157.568 L54.708,186.429 L67.145,179.093 L59.61,159.075 L59.61,159.075 Z M173.911,0 L173.911,61.133 L224.617,90.408 L224.617,27.553 L173.911,0 L173.911,0 Z M220.838,94.713 L171.266,123.334 L121.694,94.713 L171.266,66.092 L220.838,94.713 L220.838,94.713 Z M117.084,101.171 C117.084,101.171 123.973,129.585 128.707,139.055 C133.443,148.526 148.941,184.689 148.941,184.689 L162.288,153.262 C162.288,153.262 168.745,130.014 167.454,128.723 C166.163,127.432 117.084,101.171 117.084,101.171 L117.084,101.171 Z M116.653,285.431 C116.653,277.681 110.195,260.031 102.015,238.936 C93.835,217.84 81.781,189.857 71.449,170.914 C61.117,151.972 58.534,122.052 58.534,122.052 L0.414,152.404 L0.414,91.7 L167.454,0 L167.454,61.133 L109.334,92.56 C109.334,92.56 115.792,134.32 125.694,149.818 C135.596,165.316 156.691,217.839 159.273,225.158 C161.857,232.476 167.454,251.849 167.454,257.447 L167.454,263.045 L116.653,285.431 L116.653,285.431 Z" id="Shape" sketch:type="MSShapeGroup"></path>
        </g>
    </g>
</svg>