<?xml version="1.0" encoding="UTF-8" standalone="no"?>
<svg width="166px" height="41px" viewBox="0 0 166 41" version="1.1" xmlns="http://www.w3.org/2000/svg" xmlns:xlink="http://www.w3.org/1999/xlink" xmlns:sketch="http://www.bohemiancoding.com/sketch/ns">
    <!-- Generator: Sketch 3.3.3 (12081) - http://www.bohemiancoding.com/sketch -->
    <title>gbmp-color</title>
    <desc>Created with Sketch.</desc>
    <defs></defs>
    <g id="Page-1" stroke="none" stroke-width="1" fill="none" fill-rule="evenodd" sketch:type="MSPage">
        <g id="gbmp-color" sketch:type="MSLayerGroup" fill="#E47B75">
            <path d="M37.0257461,34.8943286 L37.0257461,18.413139 L20.3203226,18.413139 L20.3203226,24.4113951 L30.3547884,24.4113951 L30.3547884,31.7550544 C27.9442743,33.5489254 24.5807662,34.7261532 20.8809073,34.7261532 C12.8645464,34.7261532 7.53899197,28.7839556 7.53899197,20.6554778 C7.53899197,13.0315261 13.0327218,6.75297773 20.2642642,6.75297773 C25.2534678,6.75297773 28.2245666,8.3786733 31.2517239,10.9573628 L35.6242844,5.7439253 C31.5880747,2.32435876 27.3836896,0.418370853 20.5445565,0.418370853 C8.71621979,0.418370853 0.307449606,9.72407652 0.307449606,20.7675947 C0.307449606,32.2595806 8.37986898,41.0047016 20.6566735,41.0047016 C27.6079235,41.0047016 33.1577118,38.2017782 37.0257461,34.8943286 L37.0257461,34.8943286 Z M63.5974599,1.09107247 L45.9951009,1.09107247 L45.9951009,40.332 L64.1580445,40.332 C72.9031655,40.332 78.6771877,36.5760827 78.6771877,29.5127157 C78.6771877,24.1311028 75.4818551,21.4963548 70.8850607,19.9267177 C73.800101,18.413139 76.4909075,15.9465665 76.4909075,11.1255382 C76.4909075,4.95910675 71.5017038,1.09107247 63.5974599,1.09107247 L63.5974599,1.09107247 Z M62.1959982,17.6283205 L52.7781756,17.6283205 L52.7781756,7.20144547 L62.7005244,7.20144547 C67.1291433,7.20144547 69.5957159,9.05137491 69.5957159,12.2467076 C69.5957159,15.890508 66.6246171,17.6283205 62.1959982,17.6283205 L62.1959982,17.6283205 Z M64.214103,34.221627 L52.7781756,34.221627 L52.7781756,23.4584012 L63.7095768,23.4584012 C69.1472482,23.4584012 71.7819962,25.4204475 71.7819962,28.7839556 C71.7819962,32.3716976 68.9230143,34.221627 64.214103,34.221627 L64.214103,34.221627 Z M118.142349,12.1906491 L118.142349,40.332 L125.037541,40.332 L125.037541,1.09107247 L117.693881,1.09107247 L105.753428,19.6464253 L93.8129741,1.09107247 L86.4693148,1.09107247 L86.4693148,40.332 L93.2523894,40.332 L93.2523894,12.302766 L105.529194,30.6899435 L105.753428,30.6899435 L118.142349,12.1906491 Z M165.511755,14.2648124 C165.511755,6.24845151 159.737732,1.09107247 150.600202,1.09107247 L135.128065,1.09107247 L135.128065,40.332 L142.023256,40.332 L142.023256,27.7188447 L149.815384,27.7188447 C158.448388,27.7188447 165.511755,23.1220504 165.511755,14.2648124 L165.511755,14.2648124 Z M158.504446,14.4329878 C158.504446,18.6373729 155.253055,21.4963548 150.039617,21.4963548 L142.023256,21.4963548 L142.023256,7.36962087 L150.039617,7.36962087 C155.196996,7.36962087 158.504446,9.78013499 158.504446,14.4329878 L158.504446,14.4329878 Z" id="GBMP" sketch:type="MSShapeGroup"></path>
        </g>
    </g>
</svg>