<?xml version="1.0" encoding="UTF-8" standalone="no"?>
<svg width="610px" height="499px" viewBox="0 0 610 499" version="1.1" xmlns="http://www.w3.org/2000/svg" xmlns:xlink="http://www.w3.org/1999/xlink" xmlns:sketch="http://www.bohemiancoding.com/sketch/ns">
    <!-- Generator: Sketch 3.3.3 (12081) - http://www.bohemiancoding.com/sketch -->
    <title>seg</title>
    <desc>Created with Sketch.</desc>
    <defs></defs>
    <g id="Page-1" stroke="none" stroke-width="1" fill="none" fill-rule="evenodd" sketch:type="MSPage">
        <g id="seg" sketch:type="MSLayerGroup" fill="#E04D25">
            <path d="M593.598,152.971 C592.488,152.958 591.359,153.067 590.229,153.266 L239.043,219.878 L32.893,172.579 L32.893,101.565 C32.893,101.565 238.709,148.705 239.043,148.756 L593.598,81.31 L600.65,79.328 C605.967,76.896 609.607,72.065 609.758,66.412 C609.941,59.406 604.799,53.246 597.383,51.533 L375.18,0.588 C372.859,0.055 370.357,0.005 368.014,0.427 L13.369,67.688 C12.862,67.797 12.412,67.963 11.925,68.085 C11.553,68.194 11.168,68.258 10.809,68.38 C9.981,68.669 9.211,69.022 8.467,69.419 C8.358,69.47 8.242,69.497 8.134,69.566 C7.268,70.015 6.485,70.573 5.741,71.19 C5.516,71.363 5.33,71.575 5.112,71.773 C4.637,72.21 4.162,72.653 3.732,73.159 C3.488,73.448 3.283,73.743 3.065,74.051 C2.713,74.52 2.398,74.994 2.109,75.489 C1.923,75.822 1.763,76.156 1.602,76.503 C1.352,77.048 1.14,77.594 0.948,78.165 C0.877,78.376 0.775,78.569 0.723,78.762 C0.665,78.922 0.665,79.057 0.64,79.198 C0.505,79.781 0.428,80.372 0.377,80.969 C0.319,81.341 0.268,81.7 0.255,82.085 C0.255,82.175 0.223,82.284 0.223,82.387 L0.223,184.268 C0.223,191.146 5.317,197.132 12.599,198.794 L234.815,249.751 C237.125,250.272 239.627,250.335 241.969,249.913 L596.62,182.639 C605.474,181.015 611.19,173.13 609.44,165.014 C608.399,160.292 605.026,156.583 600.634,154.594 C600.648,154.594 596.979,152.695 593.598,152.971 L593.598,152.971 Z" id="Shape" sketch:type="MSShapeGroup"></path>
            <g id="Group" transform="translate(0.000000, 215.000000)" sketch:type="MSShapeGroup">
                <path d="M600.648,28.125 C605.965,25.693 609.605,20.859 609.756,15.209 C609.939,8.215 604.797,2.042 597.381,0.342 L240.152,65.596 C237.829,65.063 235.319,65.01 232.985,65.441 L13.369,16.484 C12.862,16.592 12.412,16.759 11.925,16.881 C11.553,16.989 11.168,17.056 10.809,17.177 C9.988,17.472 9.211,17.812 8.467,18.216 C8.358,18.267 8.242,18.293 8.134,18.375 C7.268,18.825 6.485,19.371 5.741,19.979 C5.516,20.151 5.33,20.371 5.112,20.563 C4.637,21 4.162,21.442 3.732,21.95 C3.488,22.239 3.283,22.546 3.065,22.842 C2.713,23.322 2.398,23.773 2.109,24.28 C1.923,24.614 1.763,24.946 1.602,25.288 C1.352,25.833 1.14,26.378 0.948,26.962 C0.877,27.161 0.775,27.355 0.723,27.546 C0.665,27.706 0.665,27.841 0.64,27.984 C0.505,28.566 0.428,29.157 0.377,29.755 C0.319,30.128 0.268,30.501 0.255,30.872 C0.255,30.872 0.223,31.083 0.223,31.184 L0.223,133.068 C0.223,139.932 5.317,145.92 12.599,147.592 L87.52,164.801 L87.629,133.76 L32.893,121.377 L32.893,50.383 L239.505,96 L593.598,30.107 C593.598,30.107 598.756,29.176 600.648,28.125 L600.648,28.125 Z M593.598,101.768 C592.488,101.768 591.359,101.867 590.229,102.064 L239.505,167.348 L197.697,159.205 L197.697,189.984 L234.821,198.547 C237.131,199.08 239.633,199.131 241.975,198.709 L596.625,131.434 C605.479,129.812 611.197,121.928 609.445,113.812 C608.406,109.088 605.031,105.379 600.641,103.391 C600.648,103.393 596.979,101.494 593.598,101.768 L593.598,101.768 Z" id="Shape"></path>
                <path d="M108.436,265.848 L141.184,247.105 L173.958,283.846 L173.958,128.229 L108.436,113.318 L108.436,265.848 Z" id="Shape"></path>
            </g>
        </g>
    </g>
</svg>