<?xml version="1.0" encoding="UTF-8" standalone="no"?>
<svg width="253px" height="203px" viewBox="0 0 253 203" version="1.1" xmlns="http://www.w3.org/2000/svg" xmlns:xlink="http://www.w3.org/1999/xlink" xmlns:sketch="http://www.bohemiancoding.com/sketch/ns">
    <!-- Generator: Sketch 3.3.3 (12081) - http://www.bohemiancoding.com/sketch -->
    <title>ord</title>
    <desc>Created with Sketch.</desc>
    <defs></defs>
    <g id="Page-1" stroke="none" stroke-width="1" fill="none" fill-rule="evenodd" sketch:type="MSPage">
        <g id="ord" sketch:type="MSLayerGroup">
            <path d="M246.13,90.185 L246.13,90.185 L179.184,121.664 L174.398,123.935 L174.115,192.227 L15.262,144.022 L14.958,66.618 L41.613,40.355 L64.017,74.212 L59.396,79.28 L63.777,83.497 L90.906,53.132 L118.765,89.838 L114.432,94.09 L119.278,98.938 L150.43,68.038 L181.096,113.11 L252.641,80.22 L207.75,23.67 L182.924,35.739 L159.557,11.605 L136.553,23.317 L113.546,0.251 L40.964,31.018 L0.383,72.286 L7.797,78.725 L7.958,151.83 L172.982,202.576 L174.076,202.223 L246.729,166.377 L246.053,90.222 L246.13,90.185 Z" id="Shape" fill="#8590B7" sketch:type="MSShapeGroup"></path>
            <path d="M61.358,81.654 L103.417,39.428" id="Shape" sketch:type="MSShapeGroup"></path>
            <path d="M115.796,97.534 L157.589,55.577" id="Shape" sketch:type="MSShapeGroup"></path>
        </g>
    </g>
</svg>